<svg width="500" height="500" viewBox="0 0 500 500" fill="none" xmlns="http://www.w3.org/2000/svg">
  <!-- Background gradient circle -->
  <circle cx="250" cy="250" r="180" fill="url(#paint0_radial)" fill-opacity="0.4" />
  
  <!-- Outer circuit ring -->
  <circle cx="250" cy="250" r="160" stroke="#0066FF" stroke-width="2" stroke-dasharray="10 5" />
  
  <!-- Middle circuit ring -->
  <circle cx="250" cy="250" r="120" stroke="#0066FF" stroke-width="1.5" stroke-dasharray="5 5" />
  
  <!-- Inner circuit ring -->
  <circle cx="250" cy="250" r="80" stroke="#0066FF" stroke-width="1" stroke-dasharray="3 3" />

  <!-- Core circle -->
  <circle cx="250" cy="250" r="40" fill="#0066FF" fill-opacity="0.1" stroke="#0066FF" stroke-width="2" />
  <circle cx="250" cy="250" r="20" fill="#0066FF" fill-opacity="0.3" />
  
  <!-- Connection points on outer ring -->
  <circle cx="250" cy="90" r="6" fill="#0066FF" />
  <circle cx="410" cy="250" r="6" fill="#0066FF" />
  <circle cx="250" cy="410" r="6" fill="#0066FF" />
  <circle cx="90" cy="250" r="6" fill="#0066FF" />
  
  <!-- Connection points on middle ring -->
  <circle cx="335" cy="165" r="6" fill="#0066FF" />
  <circle cx="335" cy="335" r="6" fill="#0066FF" />
  <circle cx="165" cy="335" r="6" fill="#0066FF" />
  <circle cx="165" cy="165" r="6" fill="#0066FF" />
  
  <!-- Connection lines - Vertical and Horizontal -->
  <line x1="250" y1="90" x2="250" y2="410" stroke="#0066FF" stroke-width="1" stroke-dasharray="10 5" />
  <line x1="90" y1="250" x2="410" y2="250" stroke="#0066FF" stroke-width="1" stroke-dasharray="10 5" />
  
  <!-- Connection lines - Diagonal -->
  <line x1="165" y1="165" x2="335" y2="335" stroke="#0066FF" stroke-width="1" stroke-dasharray="5 5" />
  <line x1="165" y1="335" x2="335" y2="165" stroke="#0066FF" stroke-width="1" stroke-dasharray="5 5" />
  
  <!-- Small decorative dots -->
  <circle cx="250" cy="170" r="3" fill="#0066FF" />
  <circle cx="250" cy="330" r="3" fill="#0066FF" />
  <circle cx="170" cy="250" r="3" fill="#0066FF" />
  <circle cx="330" cy="250" r="3" fill="#0066FF" />
  
  <!-- Binary code decorative element -->
  <text x="235" y="245" font-family="monospace" font-size="8" fill="#0066FF">01</text>
  <text x="245" y="255" font-family="monospace" font-size="8" fill="#0066FF">10</text>
  <text x="255" y="245" font-family="monospace" font-size="8" fill="#0066FF">11</text>
  <text x="245" y="235" font-family="monospace" font-size="8" fill="#0066FF">00</text>
  
  <!-- Glowing pulsing effect circles -->
  <circle cx="250" cy="250" r="60" fill="url(#paint1_radial)" opacity="0.6">
    <animate attributeName="opacity" values="0.2;0.6;0.2" dur="3s" repeatCount="indefinite" />
    <animate attributeName="r" values="55;65;55" dur="3s" repeatCount="indefinite" />
  </circle>
  
  <!-- Small animated dots -->
  <circle cx="300" cy="200" r="2" fill="white">
    <animate attributeName="cx" values="300;310;300" dur="2s" repeatCount="indefinite" />
    <animate attributeName="cy" values="200;190;200" dur="2s" repeatCount="indefinite" />
  </circle>
  
  <circle cx="200" cy="300" r="2" fill="white">
    <animate attributeName="cx" values="200;190;200" dur="2.5s" repeatCount="indefinite" />
    <animate attributeName="cy" values="300;310;300" dur="2.5s" repeatCount="indefinite" />
  </circle>
  
  <circle cx="200" cy="200" r="2" fill="white">
    <animate attributeName="cx" values="200;190;200" dur="3s" repeatCount="indefinite" />
    <animate attributeName="cy" values="200;190;200" dur="3s" repeatCount="indefinite" />
  </circle>
  
  <circle cx="300" cy="300" r="2" fill="white">
    <animate attributeName="cx" values="300;310;300" dur="3.5s" repeatCount="indefinite" />
    <animate attributeName="cy" values="300;310;300" dur="3.5s" repeatCount="indefinite" />
  </circle>
  
  <!-- Element labels - Positioned further away from the arrows -->
  <text x="243" y="20" font-family="sans-serif" font-size="10" fill="white">ANALYSIS</text>
  <text x="455" y="255" font-family="sans-serif" font-size="10" fill="white">DEVELOPMENT</text>
  <text x="233" y="475" font-family="sans-serif" font-size="10" fill="white">LAUNCH</text>
  <text x="10" y="255" font-family="sans-serif" font-size="10" fill="white">PLANNING</text>
  
  <!-- Process flow arrow indicators - Moved away from text -->
  <path d="M250 40 L255 50 L245 50 Z" fill="#0066FF" />
  <path d="M440 250 L430 255 L430 245 Z" fill="#0066FF" />
  <path d="M250 450 L245 440 L255 440 Z" fill="#0066FF" />
  <path d="M60 250 L70 245 L70 255 Z" fill="#0066FF" />
  
  <!-- Definitions of gradients used in the illustration -->
  <defs>
    <radialGradient id="paint0_radial" cx="0" cy="0" r="1" gradientUnits="userSpaceOnUse" gradientTransform="translate(250 250) rotate(90) scale(180)">
      <stop offset="0" stop-color="#0066FF" stop-opacity="0.2"/>
      <stop offset="1" stop-color="#000000" stop-opacity="0"/>
    </radialGradient>
    
    <radialGradient id="paint1_radial" cx="0" cy="0" r="1" gradientUnits="userSpaceOnUse" gradientTransform="translate(250 250) rotate(90) scale(60)">
      <stop offset="0" stop-color="#0066FF" stop-opacity="0.3"/>
      <stop offset="1" stop-color="#0066FF" stop-opacity="0"/>
    </radialGradient>
  </defs>
</svg>