<svg width="600" height="800" xmlns="http://www.w3.org/2000/svg" viewBox="0 0 600 800">
  <rect width="600" height="800" fill="#5f0c37" />
  <circle cx="300" cy="250" r="150" fill="#7c1049" />
  <path d="M300 150 L320 200 L370 200 L330 230 L350 280 L300 250 L250 280 L270 230 L230 200 L280 200 Z" fill="#e21c81" />
  <rect x="150" y="450" width="300" height="40" rx="10" fill="#7c1049" />
  <rect x="150" y="510" width="300" height="40" rx="10" fill="#7c1049" />
  <rect x="150" y="570" width="300" height="40" rx="10" fill="#7c1049" />
  <circle cx="190" cy="470" r="12" fill="#e21c81" />
  <circle cx="190" cy="530" r="12" fill="#e21c81" />
  <circle cx="190" cy="590" r="12" fill="#e21c81" />
  <circle cx="200" cy="650" r="15" fill="#e21c81" />
  <circle cx="250" cy="650" r="15" fill="#e21c81" />
  <circle cx="300" cy="650" r="15" fill="#e21c81" />
  <circle cx="350" cy="650" r="15" fill="#e21c81" />
  <circle cx="400" cy="650" r="15" fill="#e21c81" />
  <text x="230" y="380" font-family="Arial" font-size="24" fill="#ffffff">TRAVEL APP</text>
</svg>