<?xml version="1.0" encoding="UTF-8"?>
<svg width="180" height="48" viewBox="0 0 180 48" fill="none" xmlns="http://www.w3.org/2000/svg">
  <!-- Background glow effect -->
  <filter id="glow" x="-50%" y="-50%" width="200%" height="200%">
    <feGaussianBlur stdDeviation="1.5" result="blur"/>
    <feComposite in="SourceGraphic" in2="blur" operator="over"/>
  </filter>
  
  <!-- Logo Mark - Stylized "A" with AI node connections -->
  <g>
    <!-- Main A shape -->
    <path d="M24 8L36 40H30L27 33H13L10 40H4L16 8H24Z" fill="#0066FF"/>
    <path d="M25 18L21 29H19L15 18L17 13L23 13L25 18Z" fill="#020209"/>
    
    <!-- Connection nodes and lines -->
    <circle cx="12" cy="24" r="3" fill="#0D0D1A"/>
    <circle cx="12" cy="24" r="2" fill="#FFFFFF"/>
    
    <circle cx="28" cy="24" r="3" fill="#0D0D1A"/>
    <circle cx="28" cy="24" r="2" fill="#FFFFFF"/>
    
    <circle cx="20" cy="36" r="3" fill="#0D0D1A"/>
    <circle cx="20" cy="36" r="2" fill="#FFFFFF"/>
    
    <circle cx="20" cy="12" r="3" fill="#0D0D1A"/>
    <circle cx="20" cy="12" r="2" fill="#FFFFFF"/>
    
    <path d="M20 15L12 24" stroke="#FFFFFF" stroke-width="1.2"/>
    <path d="M20 15L28 24" stroke="#FFFFFF" stroke-width="1.2"/>
    <path d="M12 24L20 36" stroke="#FFFFFF" stroke-width="1.2"/>
    <path d="M28 24L20 36" stroke="#FFFFFF" stroke-width="1.2"/>
  </g>
  
  <!-- Text "Ai DevDuo" -->
  <g filter="url(#glow)">
    <!-- Ai -->
    <path d="M54 18V33H50V18H54Z" fill="#FFFFFF"/>
    <path d="M50 14.5C50 13.6716 50.6716 13 51.5 13H52.5C53.3284 13 54 13.6716 54 14.5V15.5C54 16.3284 53.3284 17 52.5 17H51.5C50.6716 17 50 16.3284 50 15.5V14.5Z" fill="#0066FF"/>
    
    <!-- DevDuo -->
    <path d="M60 18H65.5C67.9853 18 70 20.0147 70 22.5V28.5C70 30.9853 67.9853 33 65.5 33H60V18ZM64 22V29H65.5C65.6857 29 66.5 28.9428 66.5 28V23C66.5 22.0572 65.6857 22 65.5 22H64Z" fill="#FFFFFF"/>
    <path d="M72 18H77C79.2091 18 81 19.7909 81 22V22.5C81 24.1569 79.9255 25.5687 78.5 26.0834C79.9255 26.5981 81 28.0099 81 29.6667V33H77V29.6667C77 28.7462 76.2538 28 75.3333 28H75V33H72V18ZM75 22V24H75.3333C76.2538 24 77 23.2538 77 22.3333V22C77 22 76.5 22 76 22H75Z" fill="#FFFFFF"/>
    <path d="M83 18H87L88.5 26L90 18H94V33H91V24L89 33H88L86 24V33H83V18Z" fill="#FFFFFF"/>
    <path d="M97 18H102.5C104.985 18 107 20.0147 107 22.5V28.5C107 30.9853 104.985 33 102.5 33H97V18ZM101 22V29H102.5C102.686 29 103.5 28.9428 103.5 28V23C103.5 22.0572 102.686 22 102.5 22H101Z" fill="#FFFFFF"/>
    <path d="M109 18H114.5C116.985 18 119 20.0147 119 22.5V28.5C119 30.9853 116.985 33 114.5 33H109V18ZM113 22V29H114.5C114.686 29 115.5 28.9428 115.5 28V23C115.5 22.0572 114.686 22 114.5 22H113Z" fill="#FFFFFF"/>
    <path d="M121 25.5C121 21.3579 124.358 18 128.5 18C132.642 18 136 21.3579 136 25.5C136 29.6421 132.642 33 128.5 33C124.358 33 121 29.6421 121 25.5ZM128.5 22C126.567 22 125 23.567 125 25.5C125 27.433 126.567 29 128.5 29C130.433 29 132 27.433 132 25.5C132 23.567 130.433 22 128.5 22Z" fill="#FFFFFF"/>
  </g>
  
  <!-- Subtle digital circuit pattern -->
  <g opacity="0.2">
    <path d="M140 14H165" stroke="#0066FF" stroke-width="0.5"/>
    <path d="M146 14V20" stroke="#0066FF" stroke-width="0.5"/>
    <path d="M155 14V20" stroke="#0066FF" stroke-width="0.5"/>
    <path d="M165 14V20" stroke="#0066FF" stroke-width="0.5"/>
    <path d="M146 20H165" stroke="#0066FF" stroke-width="0.5"/>
    <circle cx="146" cy="14" r="1" fill="#0066FF"/>
    <circle cx="155" cy="14" r="1" fill="#0066FF"/>
    <circle cx="165" cy="14" r="1" fill="#0066FF"/>
    <circle cx="146" cy="20" r="1" fill="#0066FF"/>
    <circle cx="155" cy="20" r="1" fill="#0066FF"/>
    <circle cx="165" cy="20" r="1" fill="#0066FF"/>
  </g>
  
  <!-- Tagline -->
  <text x="60" y="43" fill="#666666" font-family="Arial" font-size="8" letter-spacing="0.5">TECHNOLOGY SOLUTIONS</text>
</svg>