<?xml version="1.0" encoding="UTF-8"?>
<svg width="200" height="60" viewBox="0 0 200 60" xmlns="http://www.w3.org/2000/svg">
  <!-- Subtle glowing background -->
  <radialGradient id="bg-glow" cx="25" cy="30" r="70" gradientUnits="userSpaceOnUse">
    <stop offset="0%" stop-color="#0066FF" stop-opacity="0.15" />
    <stop offset="100%" stop-color="#000000" stop-opacity="0" />
  </radialGradient>
  <rect x="0" y="0" width="200" height="60" fill="url(#bg-glow)" />

  <!-- Background elements - cosmic dots with animation -->
  <g class="background">
    <circle cx="20" cy="15" r="1" fill="#0080FF" opacity="0.6">
      <animate attributeName="opacity" values="0.6;0.9;0.6" dur="3s" repeatCount="indefinite" />
    </circle>
    <circle cx="30" cy="10" r="0.8" fill="#0080FF" opacity="0.5">
      <animate attributeName="opacity" values="0.5;0.8;0.5" dur="4s" repeatCount="indefinite" />
    </circle>
    <circle cx="15" cy="25" r="0.6" fill="#0080FF" opacity="0.7">
      <animate attributeName="opacity" values="0.7;0.9;0.7" dur="5s" repeatCount="indefinite" />
    </circle>
    <circle cx="35" cy="20" r="0.7" fill="#0080FF" opacity="0.6">
      <animate attributeName="opacity" values="0.6;0.8;0.6" dur="3.5s" repeatCount="indefinite" />
    </circle>
    <circle cx="25" cy="30" r="0.5" fill="#00A0FF" opacity="0.8">
      <animate attributeName="opacity" values="0.8;1;0.8" dur="2.5s" repeatCount="indefinite" />
    </circle>
    <circle cx="40" cy="25" r="0.8" fill="#0080FF" opacity="0.4">
      <animate attributeName="opacity" values="0.4;0.7;0.4" dur="4.5s" repeatCount="indefinite" />
    </circle>
    <circle cx="10" cy="15" r="0.6" fill="#0080FF" opacity="0.5">
      <animate attributeName="opacity" values="0.5;0.8;0.5" dur="3.8s" repeatCount="indefinite" />
    </circle>
    <circle cx="160" cy="15" r="0.5" fill="#0080FF" opacity="0.4">
      <animate attributeName="opacity" values="0.4;0.7;0.4" dur="3.2s" repeatCount="indefinite" />
    </circle>
    <circle cx="150" cy="25" r="0.4" fill="#00A0FF" opacity="0.3">
      <animate attributeName="opacity" values="0.3;0.6;0.3" dur="4.2s" repeatCount="indefinite" />
    </circle>
    <circle cx="175" cy="10" r="0.6" fill="#0080FF" opacity="0.5">
      <animate attributeName="opacity" values="0.5;0.8;0.5" dur="3.5s" repeatCount="indefinite" />
    </circle>
  </g>

  <!-- Gradient definitions -->
  <defs>
    <linearGradient id="hexGradient" x1="0%" y1="0%" x2="100%" y2="100%">
      <stop offset="0%" stop-color="#0066FF" />
      <stop offset="100%" stop-color="#0099FF" />
    </linearGradient>
    <linearGradient id="innerGradient" x1="0%" y1="0%" x2="100%" y2="100%">
      <stop offset="0%" stop-color="#0080FF" />
      <stop offset="100%" stop-color="#00B0FF" />
    </linearGradient>
    <linearGradient id="coreGradient" x1="0%" y1="0%" x2="100%" y2="100%">
      <stop offset="0%" stop-color="#0099FF" />
      <stop offset="100%" stop-color="#00C0FF" />
    </linearGradient>
    
    <filter id="glow" x="-50%" y="-50%" width="200%" height="200%">
      <feGaussianBlur stdDeviation="2.5" result="blur" />
      <feComposite in="SourceGraphic" in2="blur" operator="over" />
    </filter>
  </defs>

  <!-- Main Logo Shape - Hexagon with glow -->
  <g class="logo-container" transform="translate(10, 5)">
    <!-- Outer glow -->
    <path d="M25,2 L45,15 L45,41 L25,54 L5,41 L5,15 L25,2 Z" 
          fill="none" 
          stroke="#0099FF" 
          stroke-width="0.5" 
          opacity="0.6" 
          filter="url(#glow)" />
    
    <!-- Main hexagon -->
    <path d="M25,5 L42,16 L42,38 L25,49 L8,38 L8,16 L25,5 Z" 
          fill="url(#hexGradient)">
      <animate attributeName="opacity" values="1;0.9;1" dur="3s" repeatCount="indefinite" />
    </path>
    
    <!-- Inner highlight -->
    <path d="M25,8 L39,17 L39,35 L25,44 L11,35 L11,17 L25,8 Z" 
          fill="url(#innerGradient)">
      <animate attributeName="opacity" values="1;0.92;1" dur="4s" repeatCount="indefinite" />
    </path>
    
    <!-- Inner core -->
    <path d="M25,12 L35,19 L35,33 L25,40 L15,33 L15,19 L25,12 Z" 
          fill="url(#coreGradient)">
      <animate attributeName="opacity" values="1;0.94;1" dur="5s" repeatCount="indefinite" />
    </path>
    
    <!-- Center circle -->
    <circle cx="25" cy="26" r="12" fill="#000" opacity="0.85" />
    
    <!-- Digital circuit pattern -->
    <g stroke="#00EEFF" stroke-width="0.5" opacity="0.8">
      <path d="M19,26 C19,22 21,20 25,20 C29,20 31,22 31,26 C31,30 29,32 25,32 C21,32 19,30 19,26" 
            fill="none" 
            stroke-dasharray="1,1" />
      <line x1="22" y1="20" x2="28" y2="32" />
      <line x1="28" y1="20" x2="22" y2="32" />
      <line x1="19" y1="26" x2="31" y2="26" />
      <circle cx="22" cy="20" r="0.8" fill="#00EEFF" />
      <circle cx="28" cy="20" r="0.8" fill="#00EEFF" />
      <circle cx="22" cy="32" r="0.8" fill="#00EEFF" />
      <circle cx="28" cy="32" r="0.8" fill="#00EEFF" />
      <circle cx="19" cy="26" r="0.8" fill="#00EEFF" />
      <circle cx="31" cy="26" r="0.8" fill="#00EEFF" />
    </g>

    <!-- The letters "ai" with glow -->
    <text x="19.5" y="31" 
          font-family="Arial, sans-serif" 
          font-weight="bold" 
          font-size="14" 
          fill="white"
          filter="url(#glow)">ai</text>
  </g>

  <!-- Text "DevDuo" with modern style -->
  <text x="60" y="36" 
        font-family="Arial, sans-serif" 
        font-weight="bold" 
        font-size="24" 
        fill="white"
        letter-spacing="1">
    <tspan fill="#FFFFFF">Dev</tspan><tspan fill="#0099FF">Duo</tspan>
  </text>
  
  <!-- Slogan -->
  <text x="62" y="48" 
        font-family="Arial, sans-serif" 
        font-size="8.5" 
        fill="#BBBBBB"
        letter-spacing="0.5">Innovative Software Solutions</text>
  
  <!-- Decorative elements -->
  <g class="decorative-elements">
    <!-- Accent line with gradient -->
    <linearGradient id="lineGradient" x1="0%" y1="0%" x2="100%" y2="0%">
      <stop offset="0%" stop-color="#0066FF" stop-opacity="0.2" />
      <stop offset="50%" stop-color="#0099FF" stop-opacity="0.8" />
      <stop offset="100%" stop-color="#0066FF" stop-opacity="0.2" />
    </linearGradient>
    <line x1="62" y1="39" x2="160" y2="39" stroke="url(#lineGradient)" stroke-width="0.75" />
    
    <!-- Orbit rings with animation -->
    <g transform="translate(25, 30)">
      <circle cx="0" cy="0" r="45" fill="none" stroke="#0066FF" stroke-width="0.2" opacity="0.15">
        <animate attributeName="opacity" values="0.15;0.25;0.15" dur="8s" repeatCount="indefinite" />
      </circle>
      <circle cx="0" cy="0" r="52" fill="none" stroke="#0066FF" stroke-width="0.2" opacity="0.1">
        <animate attributeName="opacity" values="0.1;0.2;0.1" dur="10s" repeatCount="indefinite" />
      </circle>
    </g>
  </g>
</svg>