<?xml version="1.0" encoding="UTF-8"?>
<svg width="100px" height="200px" viewBox="0 0 100 200" version="1.1" xmlns="http://www.w3.org/2000/svg" xmlns:xlink="http://www.w3.org/1999/xlink">
    <defs>
        <linearGradient x1="50%" y1="0%" x2="50%" y2="100%" id="rocketBody">
            <stop stop-color="#2D3748" offset="0%"></stop>
            <stop stop-color="#1A202C" offset="100%"></stop>
        </linearGradient>
        <linearGradient x1="50%" y1="0%" x2="50%" y2="100%" id="rocketWindow">
            <stop stop-color="#63B3ED" offset="0%"></stop>
            <stop stop-color="#0066FF" offset="100%"></stop>
        </linearGradient>
        <linearGradient x1="50%" y1="0%" x2="50%" y2="100%" id="rocketFin">
            <stop stop-color="#0066FF" offset="0%"></stop>
            <stop stop-color="#2C5282" offset="100%"></stop>
        </linearGradient>
    </defs>
    <g stroke="none" stroke-width="1" fill="none" fill-rule="evenodd">
        <!-- Rocket Body -->
        <path d="M50,30 C35,30 30,100 30,160 L70,160 C70,100 65,30 50,30 Z" fill="url(#rocketBody)"></path>
        
        <!-- Rocket Nose -->
        <path d="M50,30 C40,30 30,15 50,10 C70,15 60,30 50,30 Z" fill="#0066FF"></path>
        
        <!-- Window -->
        <circle cx="50" cy="70" r="8" fill="url(#rocketWindow)"></circle>
        
        <!-- Left Fin -->
        <path d="M30,130 L15,170 L30,170 L30,130 Z" fill="url(#rocketFin)"></path>
        
        <!-- Right Fin -->
        <path d="M70,130 L85,170 L70,170 L70,130 Z" fill="url(#rocketFin)"></path>
        
        <!-- Bottom Fin -->
        <path d="M45,160 L45,185 L55,185 L55,160 Z" fill="url(#rocketFin)"></path>
        
        <!-- Exhaust Base -->
        <path d="M40,160 L40,170 C40,175 45,180 50,180 C55,180 60,175 60,170 L60,160 Z" fill="#4A5568"></path>
    </g>
</svg>